<?xml version="1.0" encoding="UTF-8"?>
<svg version="1.1" viewBox="0 0 1024 1024" width="1024" height="1024" xmlns="http://www.w3.org/2000/svg">
<path transform="translate(510,316)" d="m0 0h5l3 5 14 133 2 18v7l23-15 16-10 47-30 41-26 38-24 7 1 2 3-1 7-21 32-29 44-42 64-17 26 86 8 71 7 7 2 3 4-1 5-5 3-85 8-89 8h-12l5 9 13 20 27 41 12 19 5 8v6l-4 3-6-1-27-18-46-32-14-10-1-1-1 2-7 69-10 102-2 17-3 2-6-1-2-6-7-70-9-86v-6l-12 8-35 23-25 16-15 10-20 13-44 29-15 10-5 3-7-1-2-2v-7l11-16 12-19 16-25 11-17 10-16 13-20 14-22 11-17 9-14 2-3-45-4-98-10-15-2-4-3v-6l5-4 60-6 120-11 5-1-6-11-11-17-13-20-16-25-13-20-1-4 2-4 2-1h6l46 30 18 12 17 11 9 6 5-51 14-132 2-6zm2 74-3 20-9 86v6l11-7 12-8-2-21-7-65-1-11zm168 10m-1 1-50 32-47 30-17 11-25 16-34 22-21 14-12 11-7 8-12 18-12 20-15 23-11 18-11 17-7 11-22 34-14 22-11 17-13 20 1 2 27-18 17-11 72-47 16-10 10-7 19-12 24-16 14-11 12-12 9-12 8-13 18-30 19-29 30-46 14-21 32-49zm-265 72 2 4 17 26 16 25 6 9 4-2 11-12 8-6-5-5-48-32zm176 89-12 20v2l18-1 73-7 21-2-2-2-52-5zm-157 1-107 10 3 2 70 7 19 2h9l7-10 6-9v-2zm130 43-12 13-10 7 1 3 19 13 14 10 16 11 14 10 2-1-18-27-13-20-7-11-5-8zm-40 34-10 7-11 7v10l5 52 4 37 2-1 8-80 3-28z" fill="#41B5C6"/>
<path transform="translate(503,78)" d="m0 0h19l15 3 13 5 11 6 9 7 5 4 11 14 8 16 3 11 1 6v20l-3 14-6 15-7 11-11 12-10 8-14 8-7 3h-3v2h15l36 6 26 7 21 7 27 12 21 11 19 12 14 10 14 11 12 11 10 9 9 9 9 11 8 9 14 19 10 16 12 22 9 20 9 25 7 26 5 27 3 32v34l-3 33-5 27-7 26-8 23-11 24-9 17-12 19-12 16-11 14-14 15-17 17-8 7-14 11-18 13-23 14-19 10-26 11-30 10-26 6-20 3-21 2h-40l-31-3-26-5-26-7-24-9-20-9-20-10-21-13-18-13-11-9-10-9-8-7-16-16-7-8-13-16-18-27-10-18-8-16-8-19-9-27-6-27-4-27-1-13v-53l3-27 5-26 7-25 8-22 9-20 10-19 12-19 16-21 12-14 12-13 7-7 11-9 9-8 16-12 18-12 17-10 16-8 20-9 25-9 36-9 27-4h9v-3l-10-3-13-8-10-9-7-7-10-16-5-14-2-9-1-14 2-18 6-16 7-12 9-10 8-8 15-9 13-5 11-3zm1 13-17 4-11 5-10 6-11 10-7 10-6 12-3 14v20l4 15 7 13 9 10 10 9 8 5 5 1v-15l2-10 4-8 5-6 10-5 11-1 10 3 5 4h2l7 14 1 5 1 20 12-6 10-8 8-8 7-11 5-11 3-14v-18l-3-12-7-14-9-11-11-9-12-7-16-5-6-1zm2 102-6 4-4 6-1 3v23l2 13h27l2-10 1-9v-13l-3-10-6-6-3-1zm-2 61-21 1-30 4-30 7-27 9-23 10-22 11-19 12-17 12-11 9-14 12-20 20-9 11-6 7-13 18-13 21-12 23-11 28-7 24-5 25-3 23-1 16v29l2 27 4 27 6 25 9 27 11 24 12 22 12 18 12 16 12 14 15 16 13 12 14 12 18 13 21 13 23 12 18 8 19 7 22 6 23 5 22 3 13 1h42l21-2 28-5 27-7 25-9 20-9 23-13 16-10 16-12 11-9 10-9 12-11 7-7 7-8 12-14 13-18 13-21 13-25 11-28 8-28 5-26 3-29v-43l-2-22-5-29-7-25-7-20-9-21-11-21-14-22-14-18-12-14-21-21-11-9-12-10-22-15-15-9-23-12-30-12-28-8-25-5-26-3-19-1z" fill="#41B5C6"/>
<path transform="translate(507,550)" d="m0 0 10 1 8 5 5 6 2 5v9l-4 8-8 7-8 2-8-1-8-5-5-6-2-7 1-9 3-6 8-7zm0 13-5 5v7l5 5h7l4-4 1-2v-6l-5-5z" fill="#41B5C6"/>
</svg>
